<?xml version="1.0" encoding="UTF-8" standalone="no"?>
<svg xmlns="http://www.w3.org/2000/svg" xmlns:xlink="http://www.w3.org/1999/xlink" width="297.000mm" height="210.000mm" viewBox="0.000000 0.000000 297.000000 210.000000" stroke-linejoin="round" stroke-linecap="round" fill="none" fill-rule="evenodd"><desc>Composer Export</desc><script type="text/ecmascript"><![CDATA[
if(typeof(top) != "undefined")
{
	top.ShowPaper = ShowPaper;
}
function ShowHotSpot(evt,hotspotid)
{
	var svgDocument = evt.target.ownerDocument;
	var strId = "hotspot."+hotspotid;
	var hotspot = svgDocument.getElementById(strId);
	if(hotspot)
		hotspot.setAttribute("opacity",".5");
}
function HideHotSpot(evt,hotspotid)
{
	var svgDocument = evt.target.ownerDocument;
	var strId = "hotspot."+hotspotid;
	var hotspot = svgDocument.getElementById(strId);
	if(hotspot)
		hotspot.setAttribute("opacity","0");

	var toolTip = svgDocument.getElementById('ToolTip');
	if(toolTip)
		toolTip.setAttribute("visibility","hidden");
}
function ShowToolTip(evt,hotspotid,strTooltip)
{
	if(strTooltip=="")
	return;

	// change text
	var svgDocument = evt.target.ownerDocument;
	var tiptext = svgDocument.getElementById('ToolTipText');
	if( !tiptext )
	return;
	tiptext.firstChild.nodeValue = " " + strTooltip + "  " ;

	// show tooltip before, else some refresh issue

	var toolTip = svgDocument.getElementById('ToolTip');
	if(!toolTip)
	return;

	toolTip.setAttribute("visibility","visible");
	toolTip.setAttribute("opacity",".95");

	// move tooltip
	// get viewbox

	var root = svgDocument.documentElement;
	var vbox = (root.getAttribute("viewBox")).split(' ');
	var x0 = parseFloat(vbox[0]);
	var y0 = parseFloat(vbox[1]);
	var vboxW = parseFloat(vbox[2]);
	var vboxH = parseFloat(vbox[3]);

	// get default width of svg

	var strW = root.getAttribute("width");
	var svgW = parseFloat(strW);
	if(strW.indexOf('mm') != -1)
	svgW *= 3.779;

	var strH = root.getAttribute("height");
	var svgH = parseFloat(strH);
	if(strH.indexOf('mm') != -1)
	svgH *= 3.779;  	// 96 dpi  -> 96/25.4 = 3.779

	// update the viewbox / width / height if svg is embedded in html with zoom fit all
	var realx0 = x0;
	var realy0 = y0;
	var realvboxW = vboxW;
	var realvboxH = vboxH;
	var realsvgW = svgW;
	var realsvgH = svgH;

	if ((typeof(top) == "undefined") || (typeof(top.svgctl1) != "undefined")) // embedded in html
	{
		// get window size in pxl

		svgW = window.innerWidth;
		svgH = window.innerHeight;

		// calculate real viewbox

		realsvgW = svgW;
		realsvgH = svgH;
		if((svgW / svgH) > (vboxW / vboxH))
		{
			realvboxW = (vboxH * svgW) / svgH;
			realvboxH = vboxH;
			realx0 = x0 - (realvboxW - vboxW)/2 ;
		}
		else
		{
			realvboxH = (vboxW * svgH) / svgW;
			realvboxW = vboxW;
			realy0 = y0 - (realvboxH - vboxH)/2 ;
		}
	}

	// get user zoom/pan

	var newScale = root.currentScale;
	var translation = root.currentTranslate;

	// transform pxl to user unit

	var xPos = (((evt.clientX+10- translation.x)/newScale) * realvboxW)/realsvgW  + realx0 ;
	var yPos = (((evt.clientY+5- translation.y)/newScale) * realvboxH)/ realsvgH  + realy0 ;
	var scaleForWidth = ( (1 / newScale) * realvboxH) / realsvgH;

	// move tooltip

	toolTip.setAttribute("transform", "translate(" + xPos + "," + yPos + ")" );

	// resize tooltip

	var fontsize = 12;
	tiptext.setAttribute("font-size",fontsize*scaleForWidth);
	tiptext.setAttribute("y", fontsize*scaleForWidth);
	var tipBG = svgDocument.getElementById('ToolTipBG');
	var outline = tiptext.getBBox();
	if(tipBG)
	{
		tipBG.setAttribute("stroke-width", 1*scaleForWidth);
		tipBG.setAttribute("width", Number(outline.width) );
		tipBG.setAttribute("height", Number(outline.height) + fontsize*.5*scaleForWidth );
	}
	var ToolTipShadow = svgDocument.getElementById('ToolTipShadow');
	if(ToolTipShadow)
	{
		ToolTipShadow.setAttribute("width", Number(outline.width) );
		ToolTipShadow.setAttribute("height", Number(outline.height) + fontsize*.5*scaleForWidth );
		ToolTipShadow.setAttribute("x", 3*scaleForWidth);
		ToolTipShadow.setAttribute("y", 3*scaleForWidth);
	}
}
function ShowPaper()
{
  var svgDocument = getDocument();
  var paper = svgDocument.getElementById("paperID");
  if(paper)
  {
    paper.setAttribute("transform","scale(1)");
    paper.setAttribute("opacity","1");
    paper.setAttribute("visibility","visible");
  }
  var svg = svgDocument.getRootElement();
  if(svg)
  {
    svg.setAttribute("width","307.000mm");
    svg.setAttribute("height","220.000mm");
    svg.setAttribute("viewBox","-5.000000 -5.000000 307.000000 220.000000");
  }
}
]]></script><defs/><g><path style="fill:#000000;fill-opacity:0.098;fill-rule:evenodd" d="M178.83,25.05L178.83,26.99L178.54,27.46L157.02,40.17L157.09,40.65L158.15,43.46L158.65,47.04L158.40,50.70L158.13,51.47L157.28,51.38L157.38,51.96L157.89,51.89L157.93,52.20L157.61,52.73L157.39,55.31L156.87,55.83L156.60,54.96L155.21,42.95L155.85,42.51L155.88,41.94L154.30,40.13L154.30,39.49L156.07,38.34L156.01,37.88L178.46,24.83zM132.39,28.48L132.39,28.94L131.84,29.23L131.56,28.68L131.52,28.13zM170.66,27.45L169.79,27.64L167.24,29.21L166.71,29.26L166.71,28.96L170.41,26.92L170.70,26.91zM126.00,29.44L125.47,29.45L125.46,28.98L125.73,28.93zM138.41,29.92L138.97,29.89L139.09,30.10L138.74,31.06L138.45,30.46zM139.27,30.80L139.09,30.10L139.26,30.20zM148.27,30.85L147.66,31.32L147.58,31.01L148.24,30.74zM146.17,32.05L146.17,32.51L145.62,32.80L145.34,32.25L145.30,31.70zM157.56,34.30L161.12,32.21L161.74,32.25L161.74,32.54L161.12,32.76L158.06,34.58L157.60,34.54zM151.42,36.08L152.52,35.79L152.18,36.34L151.48,36.32zM149.99,37.04L149.99,37.94L149.70,37.65L149.73,36.80zM151.77,41.81L149.88,42.95L149.19,43.79L149.19,45.28L149.72,46.09L150.00,46.10L150.21,44.30L150.91,43.47L153.05,42.19L153.28,44.29L152.97,44.51L153.05,45.76L153.55,46.53L154.06,49.60L154.05,52.91L152.70,56.24L151.53,57.61L148.17,59.89L148.18,59.41L149.13,58.28L149.72,57.09L150.23,55.04L150.23,50.62L149.21,46.54L147.85,43.44L149.21,42.54L151.51,41.19zM154.85,44.53L154.54,45.61L154.00,45.62L153.68,44.72L153.95,44.46zM137.12,45.80L136.61,45.78L137.37,44.98L138.24,44.98zM139.08,45.40L137.11,46.78L136.34,46.79L137.39,46.03L138.69,45.22zM141.05,48.06L141.04,49.68L138.22,51.22L138.14,48.34L140.58,47.03zM129.09,47.56L129.05,48.12L128.51,48.63L122.19,52.27L121.56,52.50L121.67,51.63L121.31,51.12L128.57,47.04zM154.50,53.15L155.32,52.87L155.25,53.77L155.41,53.88L155.30,54.05L154.85,53.95zM155.87,53.76L155.41,53.88L155.74,53.12L155.87,53.17zM152.81,58.31L152.52,59.12L151.97,58.50L151.95,58.24zM138.50,61.60L137.97,61.64L137.62,61.39L137.72,60.80zM149.23,61.29L149.22,62.20L148.85,61.08zM138.95,61.05L139.24,61.10L139.29,61.39L139.00,61.34zM154.35,58.58L150.73,62.20L150.73,61.70L154.24,58.26zM103.53,63.12L103.54,64.24L103.02,65.02L103.03,63.65L102.66,62.06L103.02,61.85zM102.10,62.48L102.28,64.25L100.88,65.20L100.38,65.19L100.49,64.13L100.14,63.36L102.01,62.37zM99.50,62.82L99.71,63.44L98.85,63.91L98.14,63.89L98.38,63.39L98.02,62.86L98.31,62.58L99.20,62.59zM89.76,64.67L89.68,65.14L89.42,69.23L87.98,70.10L87.44,69.00L86.93,66.68L87.20,65.25L88.38,64.38L89.25,64.37zM166.89,65.06L165.54,65.78L165.52,64.98L165.97,64.35L166.27,64.40zM167.17,65.33L166.82,65.78L166.82,65.23L166.89,65.06zM92.59,66.95L92.56,67.52L91.45,68.26L91.03,68.24L90.66,66.95L91.19,66.14L91.79,66.15zM98.76,66.61L98.57,65.93L98.67,65.91zM98.95,67.29L98.76,66.61L98.93,66.75zM79.18,67.70L78.68,68.00L78.16,67.97L78.93,67.45L80.58,67.46zM80.31,69.73L80.00,70.02L80.15,72.74L79.21,71.02L79.28,69.47L78.24,69.51L78.15,69.00L79.30,68.98zM94.90,68.88L95.28,73.18L95.68,73.26L94.58,73.93L94.57,73.43L94.87,72.91L94.84,68.72zM93.83,70.84L93.23,70.79L93.90,70.56zM88.22,72.30L97.90,114.26L98.44,112.73L99.09,112.36L100.24,112.34L100.50,112.60L100.44,114.77L100.30,114.86L100.21,113.63L100.15,114.77L100.30,114.86L100.46,116.20L99.18,117.10L98.65,116.73L98.68,117.74L99.71,122.85L99.45,124.46L98.88,125.24L98.60,125.24L98.68,122.07L87.44,73.34L86.62,71.28L87.47,71.00zM98.45,71.51L98.38,71.80L97.73,71.97L97.84,71.26L98.18,71.24zM80.06,73.42L80.15,72.74L80.58,73.59L80.54,74.65L80.82,74.37L81.10,74.84L81.04,76.15L81.92,79.13L82.08,80.48L91.27,118.76L92.08,121.06L92.04,121.67L91.74,121.68L90.75,119.28L84.38,92.45L84.39,93.75L85.91,102.43L90.50,121.06L91.03,121.80L90.54,122.17L89.83,121.22L89.73,120.57L89.57,120.45L89.48,119.76L89.39,119.78L89.57,120.45L89.83,121.22L90.26,122.73L89.75,122.84L89.75,124.12L91.53,134.33L91.54,137.98L91.28,138.74L90.67,139.66L84.77,143.76L84.30,143.79L84.91,142.58L84.86,138.91L74.43,82.53L73.92,80.22L71.85,75.62L71.79,75.14L78.44,71.25L78.79,71.25zM86.93,73.09L98.16,121.82L98.18,124.72L96.92,126.56L96.40,126.69L96.01,127.17L95.53,127.20L95.88,126.24L95.87,124.63L84.38,75.13L83.56,73.07L85.13,72.12L85.84,71.24L86.15,71.27zM97.73,71.97L97.63,72.13L96.49,72.73L97.02,71.79zM163.79,72.56L163.79,72.90L163.51,72.84L163.51,72.28zM96.49,72.73L96.30,73.09L95.68,73.26L95.99,72.54zM149.72,73.41L150.77,73.29L151.03,73.88L150.63,73.86L150.23,74.39L150.00,74.38L149.25,74.91L148.95,74.92L148.19,75.67L147.82,75.64L147.42,76.18L147.05,76.15L146.75,76.81L145.53,76.89L144.61,77.96L144.39,77.95L143.62,78.48L142.97,78.71L142.57,79.24L142.21,79.21L141.81,79.75L141.59,79.76L139.94,80.48L138.25,81.58L137.98,81.29L137.12,81.79L136.64,81.75L136.73,81.25L135.86,81.79L135.20,81.78L134.57,82.03L134.06,82.02L135.19,80.06L146.83,72.80L146.99,73.20L145.91,73.69L144.54,74.60L144.83,74.88L144.84,75.67L145.13,75.96L146.16,74.19L146.99,73.20L147.86,72.78L148.47,73.16L149.25,72.80zM164.55,73.52L165.11,74.52L164.53,74.35L164.15,73.34zM119.63,73.93L118.98,73.93L118.98,73.58L119.63,73.58zM95.66,75.03L95.51,74.64L111.97,64.90L111.95,78.26L107.35,81.07L106.59,81.26zM152.28,75.22L154.51,73.80L154.81,73.81L155.00,75.96L155.64,76.38L155.61,76.73L155.24,77.18L156.10,77.13L156.64,77.41L156.88,77.77L156.01,78.43L155.43,79.12L154.95,79.19L154.71,79.45L155.22,79.47L155.43,79.12L156.61,78.50L157.14,78.17L157.67,78.66L157.93,79.29L154.73,81.48L154.32,82.36L150.14,85.12L149.72,84.86L144.60,87.97L144.59,87.46L145.77,85.55L147.43,84.39L147.51,84.22L148.10,84.05L148.27,83.71L148.87,83.54L149.04,83.20L149.68,83.00L149.71,82.74L149.40,82.73L149.04,83.20L148.59,83.26L148.27,83.71L147.83,83.77L147.51,84.22L147.07,84.29L143.75,86.37L143.25,86.36L144.34,84.26L142.73,85.10L142.22,85.08L143.13,83.31L141.72,84.09L141.20,84.13L141.43,83.51L141.83,82.56L141.58,82.59L141.24,81.22L142.86,80.33L146.14,78.18L146.06,77.17L146.75,76.81L146.92,76.93L146.84,77.41L147.40,77.52L151.92,74.58zM119.63,75.46L118.98,75.46L118.98,75.11L119.63,75.11zM165.23,75.13L165.09,75.79L164.68,75.72L164.74,75.21L165.11,74.52L165.59,74.63zM165.78,75.97L166.01,75.36L166.30,75.34L166.28,76.39L166.57,76.90L167.84,80.73L167.84,85.16L166.82,87.70L165.43,89.38L161.08,92.47L160.60,92.49L161.64,90.44L161.97,89.50L161.97,85.58L160.95,82.01L160.15,80.47L160.09,79.99L161.96,78.76L165.06,76.75L165.09,75.79L165.55,75.40zM124.66,76.65L124.08,76.73L124.10,76.40L124.70,76.36zM124.65,78.17L123.83,78.25L123.83,77.96L124.76,77.70zM82.18,78.32L81.92,79.13L82.10,78.16zM159.71,80.47L159.65,81.76L159.96,82.26L159.95,82.64L159.70,82.89L159.17,81.50L158.13,82.10L158.13,80.57L159.09,79.93L159.40,79.95zM138.77,77.27L133.78,80.48L133.15,80.50L132.04,81.76L131.34,82.36L131.61,78.02L132.35,77.23L138.68,73.28L139.00,73.31zM131.35,83.49L131.12,83.90L130.98,83.30zM160.46,84.17L160.21,84.42L160.16,83.02zM160.62,84.80L160.69,86.18L160.45,86.12zM131.25,87.64L139.98,81.98L140.25,81.96L139.76,92.30L139.43,94.00L124.09,103.92L122.40,104.82L122.41,95.61L122.59,92.21L123.59,91.96L125.15,91.72L128.25,89.72L129.04,88.97L130.74,87.90L130.88,87.92zM157.21,82.15L147.36,88.66L147.17,89.24L145.78,90.42L147.46,90.78L146.38,91.55L146.37,91.96L147.94,92.20L146.82,93.22L147.12,93.50L147.92,93.74L147.31,94.51L149.23,94.77L148.35,95.02L147.30,95.77L149.49,96.05L148.34,96.28L147.31,97.06L149.23,97.32L147.84,97.56L146.82,98.31L147.13,98.60L146.63,99.22L146.87,99.61L146.60,99.89L146.55,100.44L147.42,100.92L148.09,100.89L148.47,100.39L148.47,100.97L144.11,104.06L143.83,103.45L143.35,103.52L142.99,102.64L142.41,103.10L140.72,103.71L138.62,103.68L140.44,102.16L141.05,100.47L141.04,97.32L140.50,95.28L140.34,95.17L142.83,93.83L143.01,91.46L143.60,91.24L143.63,90.74L143.35,90.74L143.24,90.20L144.38,89.66L144.61,90.79L144.87,89.24L146.57,88.13L147.71,87.74L156.53,81.97zM142.34,90.52L141.03,91.55L141.04,90.78L142.34,89.66zM156.57,94.77L158.09,93.71L158.40,93.73L158.15,94.61L154.96,96.82L154.47,96.89L154.47,96.60L156.59,95.13zM139.66,95.49L140.34,95.17L140.17,95.51L140.54,96.80L140.53,100.23L140.03,96.29zM157.03,96.78L157.41,96.56L157.32,97.05L156.24,97.12L156.24,96.82zM135.68,98.38L136.44,97.65L137.68,96.78L137.96,96.77L137.47,97.66L136.19,98.43L136.20,99.37L135.94,100.71L135.67,100.44L135.39,98.86L135.08,98.54zM160.17,97.14L157.54,98.84L157.10,99.43L155.84,99.97L155.84,98.93L160.20,96.04zM148.90,99.84L149.19,99.89L149.24,100.18L148.95,100.13zM131.35,101.21L130.64,101.53L130.78,101.15zM130.64,101.53L130.55,101.73L129.88,102.05L130.20,101.39zM129.88,102.05L129.49,102.47L128.89,102.37L129.44,101.91zM128.21,102.68L128.89,102.37L128.70,102.95L128.26,102.94zM147.37,102.90L147.66,102.95L147.71,103.24L147.42,103.19zM142.92,103.34L142.60,103.82L142.41,103.10zM146.62,104.19L145.51,104.28L145.50,103.98L146.67,103.94zM136.91,104.21L136.33,104.29L136.35,103.97L136.95,103.92zM145.56,106.52L146.13,106.32L146.52,105.18L150.96,102.37L150.72,103.51L147.96,105.34L146.30,106.77L145.60,106.75zM113.74,110.07L113.74,111.49L113.50,111.74L112.86,109.28L113.26,109.03zM110.17,110.31L109.06,111.14L108.56,111.19L108.35,110.15L108.80,109.53L109.40,109.54zM110.61,110.57L111.87,109.79L112.45,109.80L112.45,111.43L111.35,112.16L110.85,112.21L110.61,111.59zM103.29,114.79L102.16,115.47L101.74,115.46L101.74,113.71L102.25,113.62zM109.23,114.33L109.04,113.65L109.14,113.63zM109.42,115.01L109.23,114.33L109.39,114.47zM105.63,116.85L105.79,119.59L105.65,119.70L105.57,116.69zM108.63,118.84L108.29,118.84L108.29,118.50L108.63,118.50zM107.87,119.26L107.78,119.54L107.27,119.55L107.59,118.49zM106.85,119.73L106.62,120.14L106.48,119.54zM105.69,119.92L105.75,120.81L105.22,120.90L105.52,119.82L105.65,119.70zM156.96,43.11L156.35,43.58L156.27,42.95L156.88,42.95zM151.75,45.05L150.77,45.58L150.48,45.59L150.46,44.82L151.25,44.02L151.76,43.98zM111.23,67.27L110.30,67.98L109.81,68.06L109.89,67.56L111.23,66.97zM104.05,71.60L103.05,72.17L102.30,72.49L102.66,71.77L104.08,71.05zM102.30,72.49L102.18,73.33L101.25,73.35L99.86,74.13L99.35,74.11L100.12,73.33L101.22,72.89L101.72,72.08zM144.54,74.60L145.91,73.69L146.99,73.20L146.16,74.19L145.13,75.96L144.84,75.67L144.83,74.88zM145.80,75.60L146.93,74.60L146.93,75.73L146.56,76.15L146.16,76.15zM145.08,76.89L143.74,76.90L144.27,76.37L145.15,76.39zM111.26,77.30L109.90,78.27L109.90,77.78L110.87,77.12zM142.84,78.24L142.25,78.46L141.45,78.52L141.44,78.21L142.51,77.62L142.85,77.67zM155.22,79.47L154.71,79.45L154.95,79.19L155.43,79.12zM150.07,80.63L149.56,80.90L149.90,80.46zM149.48,81.09L148.79,81.41L149.10,80.97L149.56,80.90zM148.59,81.77L148.07,81.74L148.31,81.49L148.79,81.41zM149.68,83.00L149.04,83.20L149.40,82.73L149.71,82.74zM146.61,83.00L145.98,83.20L146.34,82.73L146.65,82.74zM148.87,83.54L148.27,83.71L148.59,83.26L149.04,83.20zM145.78,83.55L145.27,83.53L145.50,83.28L145.98,83.20zM81.31,83.63L81.27,82.75L81.54,82.70zM148.10,84.05L147.51,84.22L147.83,83.77L148.27,83.71zM139.01,92.80L137.89,93.78L137.37,93.75L138.70,92.70zM131.02,98.33L130.47,98.33L130.74,98.05L131.09,98.05zM129.25,98.83L130.06,98.82L128.94,99.87L128.37,99.80L129.26,99.07zM127.74,99.95L128.37,99.80L128.20,100.40L127.76,100.40zM140.26,102.78L140.68,102.41L141.82,102.41L140.94,103.20L140.26,103.20zM86.00,108.18L85.67,108.66L85.67,108.10L85.95,108.04zM100.30,114.86L100.15,114.77L100.21,113.63zM88.30,115.36L88.15,115.24L88.22,114.39zM88.56,116.37L88.30,115.36L88.45,115.46zM88.81,117.39L88.56,116.37L88.70,116.48zM88.99,118.34L88.81,117.39L88.97,117.50zM89.57,120.45L89.39,119.78L89.48,119.76zM89.83,121.22L89.57,120.45L89.73,120.57z"/><g id="paperID" visibility="hidden" opacity="0.00" transform="scale(0.000100)"><path style="stroke:#000000;stroke-width:0.500;fill:#e6e6e6;fill-rule:evenodd" d="M-2000.00,-2000.00L2297.00,-2000.00L2297.00,2210.00L-2000.00,2210.00zM0.00,0.00L297.00,0.00L297.00,210.00L0.00,210.00z"/><path style="fill:#000000;fill-opacity:0.118" d="M3.00,210.00L297.00,210.00L297.00,3.00L300.00,3.00L300.00,213.00L3.00,213.00z"/></g><g><g><path style="stroke:#000000;stroke-width:0.353;fill:#f0f0ff" d="M38.23,157.52L108.41,157.52L108.41,161.65L38.23,161.65z"/><text xml:space="preserve" fill="#000000" stroke-width="0" x="39.82" y="160.69" font-size="2.97" opacity="1.00" font-family="MS Shell Dlg" font-weight="bold">Descripción</text><text xml:space="preserve" fill="#000000" stroke-width="0" x="76.74" y="160.69" font-size="2.98" opacity="1.00" font-family="MS Shell Dlg" font-weight="bold">ID de LDM</text><text xml:space="preserve" fill="#000000" stroke-width="0" x="94.46" y="160.69" font-size="2.99" opacity="1.00" font-family="MS Shell Dlg" font-weight="bold">Cantidad</text><path style="stroke:#000000;stroke-width:0.353" d="M75.15,157.52L75.15,161.65"/><path style="stroke:#000000;stroke-width:0.353" d="M92.88,157.52L92.88,161.65"/></g><g id="Line1"><path style="stroke:#000000;stroke-width:0.353;fill:#ffffff" d="M38.23,161.65L108.41,161.65L108.41,165.77L38.23,165.77z"/><text xml:space="preserve" fill="#000000" stroke-width="0" x="39.82" y="164.82" font-size="3.10" opacity="1.00" font-family="MS Shell Dlg">30HP, Baldor, CM4104T</text><text xml:space="preserve" fill="#000000" stroke-width="0" x="76.74" y="164.82" font-size="2.50" opacity="1.00" font-family="MS Shell Dlg">1</text><text xml:space="preserve" fill="#000000" stroke-width="0" x="94.46" y="164.82" font-size="2.50" opacity="1.00" font-family="MS Shell Dlg">1</text><path style="stroke:#000000;stroke-width:0.353" d="M75.15,161.65L75.15,165.77"/><path style="stroke:#000000;stroke-width:0.353" d="M92.88,161.65L92.88,165.77"/></g><g id="Line2"><path style="stroke:#000000;stroke-width:0.353;fill:#ffffff" d="M38.23,165.77L108.41,165.77L108.41,169.90L38.23,169.90z"/><text xml:space="preserve" fill="#000000" stroke-width="0" x="39.82" y="168.95" font-size="3.09" opacity="1.00" font-family="MS Shell Dlg">905001_1</text><text xml:space="preserve" fill="#000000" stroke-width="0" x="76.74" y="168.95" font-size="2.94" opacity="1.00" font-family="MS Shell Dlg">2</text><text xml:space="preserve" fill="#000000" stroke-width="0" x="94.46" y="168.95" font-size="2.50" opacity="1.00" font-family="MS Shell Dlg">1</text><path style="stroke:#000000;stroke-width:0.353" d="M75.15,165.77L75.15,169.90"/><path style="stroke:#000000;stroke-width:0.353" d="M92.88,165.77L92.88,169.90"/></g><g id="Line3"><path style="stroke:#000000;stroke-width:0.353;fill:#ffffff" d="M38.23,169.90L108.41,169.90L108.41,174.03L38.23,174.03z"/><text xml:space="preserve" fill="#000000" stroke-width="0" x="39.82" y="173.07" font-size="3.12" opacity="1.00" font-family="MS Shell Dlg">ADGE013G</text><text xml:space="preserve" fill="#000000" stroke-width="0" x="76.74" y="173.07" font-size="2.87" opacity="1.00" font-family="MS Shell Dlg">3</text><text xml:space="preserve" fill="#000000" stroke-width="0" x="94.46" y="173.07" font-size="2.50" opacity="1.00" font-family="MS Shell Dlg">1</text><path style="stroke:#000000;stroke-width:0.353" d="M75.15,169.90L75.15,174.03"/><path style="stroke:#000000;stroke-width:0.353" d="M92.88,169.90L92.88,174.03"/></g><g id="Line4"><path style="stroke:#000000;stroke-width:0.353;fill:#ffffff" d="M38.23,174.03L108.41,174.03L108.41,178.15L38.23,178.15z"/><text xml:space="preserve" fill="#000000" stroke-width="0" x="39.82" y="177.20" font-size="3.12" opacity="1.00" font-family="MS Shell Dlg">ADGE014G</text><text xml:space="preserve" fill="#000000" stroke-width="0" x="76.74" y="177.20" font-size="3.03" opacity="1.00" font-family="MS Shell Dlg">4</text><text xml:space="preserve" fill="#000000" stroke-width="0" x="94.46" y="177.20" font-size="2.50" opacity="1.00" font-family="MS Shell Dlg">1</text><path style="stroke:#000000;stroke-width:0.353" d="M75.15,174.03L75.15,178.15"/><path style="stroke:#000000;stroke-width:0.353" d="M92.88,174.03L92.88,178.15"/></g><g id="Line5"><path style="stroke:#000000;stroke-width:0.353;fill:#ffffff" d="M38.23,178.15L108.41,178.15L108.41,182.28L38.23,182.28z"/><text xml:space="preserve" fill="#000000" stroke-width="0" x="39.82" y="181.33" font-size="3.12" opacity="1.00" font-family="MS Shell Dlg">ADGE015G</text><text xml:space="preserve" fill="#000000" stroke-width="0" x="76.74" y="181.33" font-size="2.88" opacity="1.00" font-family="MS Shell Dlg">5</text><text xml:space="preserve" fill="#000000" stroke-width="0" x="94.46" y="181.33" font-size="2.50" opacity="1.00" font-family="MS Shell Dlg">1</text><path style="stroke:#000000;stroke-width:0.353" d="M75.15,178.15L75.15,182.28"/><path style="stroke:#000000;stroke-width:0.353" d="M92.88,178.15L92.88,182.28"/></g><g id="Line6"><path style="stroke:#000000;stroke-width:0.353;fill:#ffffff" d="M38.23,182.28L108.41,182.28L108.41,186.41L38.23,186.41z"/><text xml:space="preserve" fill="#000000" stroke-width="0" x="39.82" y="185.45" font-size="3.07" opacity="1.00" font-family="MS Shell Dlg">ER301-094</text><text xml:space="preserve" fill="#000000" stroke-width="0" x="76.74" y="185.45" font-size="2.87" opacity="1.00" font-family="MS Shell Dlg">6</text><text xml:space="preserve" fill="#000000" stroke-width="0" x="94.46" y="185.45" font-size="2.50" opacity="1.00" font-family="MS Shell Dlg">1</text><path style="stroke:#000000;stroke-width:0.353" d="M75.15,182.28L75.15,186.41"/><path style="stroke:#000000;stroke-width:0.353" d="M92.88,182.28L92.88,186.41"/></g><g id="Line7"><path style="stroke:#000000;stroke-width:0.353;fill:#ffffff" d="M38.23,186.41L108.41,186.41L108.41,190.53L38.23,190.53z"/><text xml:space="preserve" fill="#000000" stroke-width="0" x="39.82" y="189.58" font-size="3.06" opacity="1.00" font-family="MS Shell Dlg">ERJB224</text><text xml:space="preserve" fill="#000000" stroke-width="0" x="76.74" y="189.58" font-size="2.85" opacity="1.00" font-family="MS Shell Dlg">7</text><text xml:space="preserve" fill="#000000" stroke-width="0" x="94.46" y="189.58" font-size="2.50" opacity="1.00" font-family="MS Shell Dlg">1</text><path style="stroke:#000000;stroke-width:0.353" d="M75.15,186.41L75.15,190.53"/><path style="stroke:#000000;stroke-width:0.353" d="M92.88,186.41L92.88,190.53"/></g><g id="Line8"><path style="stroke:#000000;stroke-width:0.353;fill:#ffffff" d="M38.23,190.53L108.41,190.53L108.41,194.66L38.23,194.66z"/><text xml:space="preserve" fill="#000000" stroke-width="0" x="39.82" y="193.71" font-size="3.06" opacity="1.00" font-family="MS Shell Dlg">ERMA321</text><text xml:space="preserve" fill="#000000" stroke-width="0" x="76.74" y="193.71" font-size="2.88" opacity="1.00" font-family="MS Shell Dlg">8</text><text xml:space="preserve" fill="#000000" stroke-width="0" x="94.46" y="193.71" font-size="2.94" opacity="1.00" font-family="MS Shell Dlg">2</text><path style="stroke:#000000;stroke-width:0.353" d="M75.15,190.53L75.15,194.66"/><path style="stroke:#000000;stroke-width:0.353" d="M92.88,190.53L92.88,194.66"/></g><g><path style="stroke:#000000;stroke-width:0.353;fill:#f0f0ff" d="M113.41,157.52L183.59,157.52L183.59,161.65L113.41,161.65z"/><text xml:space="preserve" fill="#000000" stroke-width="0" x="115.00" y="160.69" font-size="2.97" opacity="1.00" font-family="MS Shell Dlg" font-weight="bold">Descripción</text><text xml:space="preserve" fill="#000000" stroke-width="0" x="151.92" y="160.69" font-size="2.98" opacity="1.00" font-family="MS Shell Dlg" font-weight="bold">ID de LDM</text><text xml:space="preserve" fill="#000000" stroke-width="0" x="169.64" y="160.69" font-size="2.99" opacity="1.00" font-family="MS Shell Dlg" font-weight="bold">Cantidad</text><path style="stroke:#000000;stroke-width:0.353" d="M150.33,157.52L150.33,161.65"/><path style="stroke:#000000;stroke-width:0.353" d="M168.05,157.52L168.05,161.65"/></g><g id="Line9"><path style="stroke:#000000;stroke-width:0.353;fill:#ffffff" d="M113.41,161.65L183.59,161.65L183.59,165.77L113.41,165.77z"/><text xml:space="preserve" fill="#000000" stroke-width="0" x="115.00" y="164.82" font-size="3.09" opacity="1.00" font-family="MS Shell Dlg">SR015-011</text><text xml:space="preserve" fill="#000000" stroke-width="0" x="151.92" y="164.82" font-size="2.88" opacity="1.00" font-family="MS Shell Dlg">9</text><text xml:space="preserve" fill="#000000" stroke-width="0" x="169.64" y="164.82" font-size="2.50" opacity="1.00" font-family="MS Shell Dlg">1</text><path style="stroke:#000000;stroke-width:0.353" d="M150.33,161.65L150.33,165.77"/><path style="stroke:#000000;stroke-width:0.353" d="M168.05,161.65L168.05,165.77"/></g><g id="Line10"><path style="stroke:#000000;stroke-width:0.353;fill:#ffffff" d="M113.41,165.77L183.59,165.77L183.59,169.90L113.41,169.90z"/><text xml:space="preserve" fill="#000000" stroke-width="0" x="115.00" y="168.95" font-size="3.09" opacity="1.00" font-family="MS Shell Dlg">SR015-347</text><text xml:space="preserve" fill="#000000" stroke-width="0" x="151.92" y="168.95" font-size="2.81" opacity="1.00" font-family="MS Shell Dlg">10</text><text xml:space="preserve" fill="#000000" stroke-width="0" x="169.64" y="168.95" font-size="2.50" opacity="1.00" font-family="MS Shell Dlg">1</text><path style="stroke:#000000;stroke-width:0.353" d="M150.33,165.77L150.33,169.90"/><path style="stroke:#000000;stroke-width:0.353" d="M168.05,165.77L168.05,169.90"/></g><g id="Line11"><path style="stroke:#000000;stroke-width:0.353;fill:#ffffff" d="M113.41,169.90L183.59,169.90L183.59,174.03L113.41,174.03z"/><text xml:space="preserve" fill="#000000" stroke-width="0" x="115.00" y="173.07" font-size="3.09" opacity="1.00" font-family="MS Shell Dlg">SR054-03</text><text xml:space="preserve" fill="#000000" stroke-width="0" x="151.92" y="173.07" font-size="2.81" opacity="1.00" font-family="MS Shell Dlg">11</text><text xml:space="preserve" fill="#000000" stroke-width="0" x="169.64" y="173.07" font-size="2.81" opacity="1.00" font-family="MS Shell Dlg">12</text><path style="stroke:#000000;stroke-width:0.353" d="M150.33,169.90L150.33,174.03"/><path style="stroke:#000000;stroke-width:0.353" d="M168.05,169.90L168.05,174.03"/></g><g id="Line12"><path style="stroke:#000000;stroke-width:0.353;fill:#ffffff" d="M113.41,174.03L183.59,174.03L183.59,178.15L113.41,178.15z"/><text xml:space="preserve" fill="#000000" stroke-width="0" x="115.00" y="177.20" font-size="3.09" opacity="1.00" font-family="MS Shell Dlg">SR054-059</text><text xml:space="preserve" fill="#000000" stroke-width="0" x="151.92" y="177.20" font-size="2.81" opacity="1.00" font-family="MS Shell Dlg">12</text><text xml:space="preserve" fill="#000000" stroke-width="0" x="169.64" y="177.20" font-size="3.03" opacity="1.00" font-family="MS Shell Dlg">4</text><path style="stroke:#000000;stroke-width:0.353" d="M150.33,174.03L150.33,178.15"/><path style="stroke:#000000;stroke-width:0.353" d="M168.05,174.03L168.05,178.15"/></g><g id="Line13"><path style="stroke:#000000;stroke-width:0.353;fill:#ffffff" d="M113.41,178.15L183.59,178.15L183.59,182.28L113.41,182.28z"/><text xml:space="preserve" fill="#000000" stroke-width="0" x="115.00" y="181.33" font-size="3.09" opacity="1.00" font-family="MS Shell Dlg">SR054-12</text><text xml:space="preserve" fill="#000000" stroke-width="0" x="151.92" y="181.33" font-size="2.81" opacity="1.00" font-family="MS Shell Dlg">13</text><text xml:space="preserve" fill="#000000" stroke-width="0" x="169.64" y="181.33" font-size="2.87" opacity="1.00" font-family="MS Shell Dlg">6</text><path style="stroke:#000000;stroke-width:0.353" d="M150.33,178.15L150.33,182.28"/><path style="stroke:#000000;stroke-width:0.353" d="M168.05,178.15L168.05,182.28"/></g><g id="Line14"><path style="stroke:#000000;stroke-width:0.353;fill:#ffffff" d="M113.41,182.28L183.59,182.28L183.59,186.41L113.41,186.41z"/><text xml:space="preserve" fill="#000000" stroke-width="0" x="115.00" y="185.45" font-size="3.09" opacity="1.00" font-family="MS Shell Dlg">SR103-00</text><text xml:space="preserve" fill="#000000" stroke-width="0" x="151.92" y="185.45" font-size="2.81" opacity="1.00" font-family="MS Shell Dlg">14</text><text xml:space="preserve" fill="#000000" stroke-width="0" x="169.64" y="185.45" font-size="3.00" opacity="1.00" font-family="MS Shell Dlg">38</text><path style="stroke:#000000;stroke-width:0.353" d="M150.33,182.28L150.33,186.41"/><path style="stroke:#000000;stroke-width:0.353" d="M168.05,182.28L168.05,186.41"/></g><g id="Line15"><path style="stroke:#000000;stroke-width:0.353;fill:#ffffff" d="M113.41,186.41L183.59,186.41L183.59,190.53L113.41,190.53z"/><text xml:space="preserve" fill="#000000" stroke-width="0" x="115.00" y="189.58" font-size="3.09" opacity="1.00" font-family="MS Shell Dlg">SR105-01</text><text xml:space="preserve" fill="#000000" stroke-width="0" x="151.92" y="189.58" font-size="2.81" opacity="1.00" font-family="MS Shell Dlg">15</text><text xml:space="preserve" fill="#000000" stroke-width="0" x="169.64" y="189.58" font-size="2.81" opacity="1.00" font-family="MS Shell Dlg">16</text><path style="stroke:#000000;stroke-width:0.353" d="M150.33,186.41L150.33,190.53"/><path style="stroke:#000000;stroke-width:0.353" d="M168.05,186.41L168.05,190.53"/></g><g id="Line16"><path style="stroke:#000000;stroke-width:0.353;fill:#ffffff" d="M113.41,190.53L183.59,190.53L183.59,194.66L113.41,194.66z"/><text xml:space="preserve" fill="#000000" stroke-width="0" x="115.00" y="193.71" font-size="3.09" opacity="1.00" font-family="MS Shell Dlg">SR111-00</text><text xml:space="preserve" fill="#000000" stroke-width="0" x="151.92" y="193.71" font-size="2.81" opacity="1.00" font-family="MS Shell Dlg">16</text><text xml:space="preserve" fill="#000000" stroke-width="0" x="169.64" y="193.71" font-size="2.81" opacity="1.00" font-family="MS Shell Dlg">16</text><path style="stroke:#000000;stroke-width:0.353" d="M150.33,190.53L150.33,194.66"/><path style="stroke:#000000;stroke-width:0.353" d="M168.05,190.53L168.05,194.66"/></g><g><path style="stroke:#000000;stroke-width:0.353;fill:#f0f0ff" d="M188.59,157.52L258.77,157.52L258.77,161.65L188.59,161.65z"/><text xml:space="preserve" fill="#000000" stroke-width="0" x="190.18" y="160.69" font-size="2.97" opacity="1.00" font-family="MS Shell Dlg" font-weight="bold">Descripción</text><text xml:space="preserve" fill="#000000" stroke-width="0" x="227.10" y="160.69" font-size="2.98" opacity="1.00" font-family="MS Shell Dlg" font-weight="bold">ID de LDM</text><text xml:space="preserve" fill="#000000" stroke-width="0" x="244.82" y="160.69" font-size="2.99" opacity="1.00" font-family="MS Shell Dlg" font-weight="bold">Cantidad</text><path style="stroke:#000000;stroke-width:0.353" d="M225.51,157.52L225.51,161.65"/><path style="stroke:#000000;stroke-width:0.353" d="M243.23,157.52L243.23,161.65"/></g><g id="Line17"><path style="stroke:#000000;stroke-width:0.353;fill:#ffffff" d="M188.59,161.65L258.77,161.65L258.77,165.77L188.59,165.77z"/><text xml:space="preserve" fill="#000000" stroke-width="0" x="190.18" y="164.82" font-size="3.09" opacity="1.00" font-family="MS Shell Dlg">SR119-064</text><text xml:space="preserve" fill="#000000" stroke-width="0" x="227.10" y="164.82" font-size="2.81" opacity="1.00" font-family="MS Shell Dlg">17</text><text xml:space="preserve" fill="#000000" stroke-width="0" x="244.82" y="164.82" font-size="2.87" opacity="1.00" font-family="MS Shell Dlg">6</text><path style="stroke:#000000;stroke-width:0.353" d="M225.51,161.65L225.51,165.77"/><path style="stroke:#000000;stroke-width:0.353" d="M243.23,161.65L243.23,165.77"/></g><g id="Line18"><path style="stroke:#000000;stroke-width:0.353;fill:#ffffff" d="M188.59,165.77L258.77,165.77L258.77,169.90L188.59,169.90z"/><text xml:space="preserve" fill="#000000" stroke-width="0" x="190.18" y="168.95" font-size="3.09" opacity="1.00" font-family="MS Shell Dlg">SR174-06</text><text xml:space="preserve" fill="#000000" stroke-width="0" x="227.10" y="168.95" font-size="2.81" opacity="1.00" font-family="MS Shell Dlg">18</text><text xml:space="preserve" fill="#000000" stroke-width="0" x="244.82" y="168.95" font-size="2.94" opacity="1.00" font-family="MS Shell Dlg">2</text><path style="stroke:#000000;stroke-width:0.353" d="M225.51,165.77L225.51,169.90"/><path style="stroke:#000000;stroke-width:0.353" d="M243.23,165.77L243.23,169.90"/></g><g id="Line19"><path style="stroke:#000000;stroke-width:0.353;fill:#ffffff" d="M188.59,169.90L258.77,169.90L258.77,174.03L188.59,174.03z"/><text xml:space="preserve" fill="#000000" stroke-width="0" x="190.18" y="173.07" font-size="3.09" opacity="1.00" font-family="MS Shell Dlg">SR194-026</text><text xml:space="preserve" fill="#000000" stroke-width="0" x="227.10" y="173.07" font-size="2.81" opacity="1.00" font-family="MS Shell Dlg">19</text><text xml:space="preserve" fill="#000000" stroke-width="0" x="244.82" y="173.07" font-size="2.50" opacity="1.00" font-family="MS Shell Dlg">1</text><path style="stroke:#000000;stroke-width:0.353" d="M225.51,169.90L225.51,174.03"/><path style="stroke:#000000;stroke-width:0.353" d="M243.23,169.90L243.23,174.03"/></g><g id="Line20"><path style="stroke:#000000;stroke-width:0.353;fill:#ffffff" d="M188.59,174.03L258.77,174.03L258.77,178.15L188.59,178.15z"/><text xml:space="preserve" fill="#000000" stroke-width="0" x="190.18" y="177.20" font-size="3.09" opacity="1.00" font-family="MS Shell Dlg">SR194-030</text><text xml:space="preserve" fill="#000000" stroke-width="0" x="227.10" y="177.20" font-size="3.03" opacity="1.00" font-family="MS Shell Dlg">20</text><text xml:space="preserve" fill="#000000" stroke-width="0" x="244.82" y="177.20" font-size="2.50" opacity="1.00" font-family="MS Shell Dlg">1</text><path style="stroke:#000000;stroke-width:0.353" d="M225.51,174.03L225.51,178.15"/><path style="stroke:#000000;stroke-width:0.353" d="M243.23,174.03L243.23,178.15"/></g><g id="Line21"><path style="stroke:#000000;stroke-width:0.353;fill:#ffffff" d="M188.59,178.15L258.77,178.15L258.77,182.28L188.59,182.28z"/><text xml:space="preserve" fill="#000000" stroke-width="0" x="190.18" y="181.33" font-size="3.09" opacity="1.00" font-family="MS Shell Dlg">SR292-080</text><text xml:space="preserve" fill="#000000" stroke-width="0" x="227.10" y="181.33" font-size="3.03" opacity="1.00" font-family="MS Shell Dlg">21</text><text xml:space="preserve" fill="#000000" stroke-width="0" x="244.82" y="181.33" font-size="3.03" opacity="1.00" font-family="MS Shell Dlg">4</text><path style="stroke:#000000;stroke-width:0.353" d="M225.51,178.15L225.51,182.28"/><path style="stroke:#000000;stroke-width:0.353" d="M243.23,178.15L243.23,182.28"/></g></g><g id="hotspot.0" ident="" onmouseover="ShowHotSpot(evt,'0')" onmouseout="HideHotSpot(evt,'0')" onmousemove="ShowToolTip(evt,'0',&quot;Object 1080&quot;)" opacity="0"><path style="fill:#00ff00;fill-rule:evenodd" d="M38.23,161.65L38.23,165.77L108.41,165.77L108.41,161.65zM288.76,61.93L289.82,62.93L290.58,64.51L290.58,65.36L290.24,66.32L289.27,67.42L288.17,68.12L286.17,68.12L285.18,67.57L284.14,66.29L283.85,65.53L166.77,76.87L167.91,80.48L168.17,83.91L167.66,86.24L166.80,87.96L165.36,89.61L161.39,92.33L160.69,93.18L159.84,93.36L158.36,94.24L158.37,94.63L160.46,95.91L160.43,97.05L156.24,99.84L155.55,99.83L153.76,98.76L152.97,97.97L152.63,97.97L150.04,99.76L151.19,102.12L150.89,103.48L146.55,106.38L146.01,106.54L143.97,105.20L142.93,103.92L141.89,103.39L140.79,103.69L137.41,103.92L137.15,104.16L135.71,104.17L135.42,103.69L133.92,102.88L133.40,102.36L132.10,102.13L131.83,101.86L131.84,100.93L141.13,94.75L140.90,94.39L140.00,93.96L140.08,88.29L140.34,82.88L140.60,81.85L141.65,81.32L141.43,80.69L141.13,80.46L139.99,80.47L127.96,88.05L128.01,87.16L126.16,86.16L125.61,85.65L125.82,77.12L126.56,75.54L133.54,71.19L135.45,71.20L136.74,71.71L137.78,72.76L138.54,72.73L139.07,73.25L139.06,77.24L143.60,74.29L144.64,74.04L145.41,73.01L147.27,71.77L147.80,70.99L148.84,70.78L151.86,68.89L153.39,68.36L155.05,68.13L157.09,68.37L159.93,69.40L162.79,71.43L165.12,74.05L165.09,74.35L164.56,74.66L164.55,75.31L165.61,76.17L168.60,76.10L283.01,65.03L283.87,64.85L284.10,63.54L285.32,62.18L286.34,61.66L287.99,61.67zM131.26,97.99L130.70,97.99L130.98,97.71L131.32,97.71zM154.78,77.48L152.89,77.65L150.30,77.66L150.77,76.31L154.71,73.74L155.02,73.75zM154.51,82.36L150.13,85.22L150.13,81.85L150.30,78.41L154.78,78.15zM157.64,96.71L157.54,97.49L156.05,97.48L155.71,96.95L156.21,96.17L157.35,96.20zM147.06,103.66L147.04,104.52L146.45,104.73L145.22,104.43L145.23,103.77L145.93,103.12L146.53,103.12z"/></g><g id="hotspot.1" ident="" onmouseover="ShowHotSpot(evt,'1')" onmouseout="HideHotSpot(evt,'1')" onmousemove="ShowToolTip(evt,'1',&quot;Object 1091&quot;)" opacity="0"><path style="fill:#00ff00;fill-rule:evenodd" d="M113.41,165.77L113.41,169.90L183.59,169.90L183.59,165.77zM11.78,52.12L12.81,53.15L13.32,54.45L13.32,55.58L13.02,56.34L13.04,57.01L63.02,92.87L64.10,93.08L64.53,93.94L66.14,95.17L67.07,95.17L67.95,93.69L68.46,93.58L68.73,93.85L69.72,97.50L70.26,98.52L71.02,98.63L71.03,97.23L70.01,93.09L69.73,92.61L65.35,91.32L64.55,90.82L64.23,88.98L65.10,88.98L69.73,90.28L70.80,90.76L72.83,99.03L72.85,100.16L72.22,101.11L70.75,100.85L69.76,100.04L68.95,98.79L68.70,98.00L67.84,97.97L67.39,98.60L67.42,99.01L71.29,102.38L73.89,104.93L74.64,106.50L74.65,107.90L70.91,110.35L72.82,118.12L73.36,118.86L75.40,119.67L76.38,119.65L76.46,119.15L74.92,113.18L74.66,112.93L73.60,112.69L73.03,110.58L75.91,111.41L77.98,119.91L78.00,121.55L77.65,121.96L75.92,121.97L74.14,121.43L72.34,119.88L71.53,118.11L69.11,108.56L71.28,107.10L72.85,106.11L71.29,104.44L67.17,100.83L66.38,97.75L66.39,95.90L65.13,94.92L64.53,94.99L63.70,93.91L12.78,57.26L12.23,57.29L11.18,58.07L8.65,58.08L7.15,56.75L6.85,56.28L6.85,53.75L8.33,52.13L9.62,51.61L10.48,51.61zM62.78,71.72L64.36,72.72L66.17,74.26L68.47,77.65L68.40,78.14L68.98,78.92L69.74,81.51L69.75,84.96L69.49,85.46L68.49,86.79L67.34,87.19L66.40,87.19L65.09,86.94L62.29,85.10L60.24,82.51L58.91,80.23L58.14,77.91L57.88,76.88L57.88,74.11L58.43,72.60L59.85,71.45L62.02,71.46zM62.77,89.33L62.70,89.01L63.29,88.94zM63.76,92.06L63.02,92.14L62.93,91.85L63.82,91.81zM65.63,98.33L65.03,98.38L65.26,97.96L65.65,98.00zM65.86,99.62L65.53,99.53L65.91,99.32zM65.34,101.45L65.31,100.55L65.58,100.51zM65.90,103.50L65.81,103.17L66.10,103.12zM66.41,104.27L66.32,103.94L66.62,103.89zM67.26,106.14L66.56,105.97L67.14,105.97zM67.80,106.41L67.27,106.69L67.26,106.14zM67.13,107.14L66.81,107.11L66.79,106.80L67.27,106.69zM68.20,108.55L67.87,108.63L67.96,108.30zM67.61,109.81L68.20,109.88L68.26,110.16L67.92,110.16zM68.80,111.05L68.39,111.48L68.10,111.42L68.39,110.85L68.69,110.83zM68.99,111.75L68.80,111.05L68.98,111.14zM69.23,112.49L68.62,112.44L69.29,112.21zM68.80,113.38L68.42,113.55L68.36,113.21zM69.83,114.90L69.30,115.19L69.43,114.71zM68.88,115.26L69.30,115.19L69.23,115.61L68.96,115.53zM70.24,116.40L69.63,116.26L70.05,116.03zM70.05,117.13L70.01,117.40L69.39,117.40L69.46,117.08z"/></g><g id="hotspot.2" ident="" onmouseover="ShowHotSpot(evt,'2')" onmouseout="HideHotSpot(evt,'2')" onmousemove="ShowToolTip(evt,'2',&quot;Object 1151&quot;)" opacity="0"><path style="fill:#00ff00;fill-rule:evenodd" d="M113.41,169.90L113.41,174.03L183.59,174.03L183.59,169.90zM124.94,63.47L124.89,63.80L124.56,64.04L124.10,64.01L124.01,63.20L124.64,63.17zM167.06,65.82L166.53,65.89L166.62,65.07L167.15,65.00zM136.17,68.34L136.46,68.38L136.51,68.68L136.22,68.63zM135.50,69.13L135.38,69.67L134.67,69.68L134.58,68.87L135.21,68.84zM166.41,75.30L166.37,75.94L165.78,75.96L165.66,75.24L166.16,75.04zM165.66,75.24L165.33,75.41L165.25,75.07zM11.78,82.01L12.81,83.04L13.32,84.34L13.33,85.47L13.02,85.98L13.04,86.39L89.06,131.27L90.64,131.21L90.90,131.47L90.80,132.80L89.31,132.80L89.05,131.77L12.81,86.66L11.92,87.42L10.93,87.97L8.92,87.96L7.41,86.90L6.86,85.90L6.86,83.64L8.06,82.01L9.36,81.51L10.75,81.50zM82.04,83.59L81.24,83.67L81.32,82.87L82.12,82.79zM85.61,108.26L85.86,108.01L86.50,108.04L86.40,108.85L85.90,108.92z"/></g><g id="hotspot.3" ident="" onmouseover="ShowHotSpot(evt,'3')" onmouseout="HideHotSpot(evt,'3')" onmousemove="ShowToolTip(evt,'3',&quot;ER300-220&quot;)" opacity="0"><path style="fill:#00ff00;fill-rule:evenodd" d="M113.41,174.03L113.41,178.15L183.59,178.15L183.59,174.03zM102.47,73.35L102.12,73.35L102.12,73.01L102.47,73.01zM289.03,82.01L290.06,83.04L290.58,84.35L290.58,85.20L290.30,85.97L289.18,87.42L288.18,87.97L286.17,87.96L284.66,86.90L284.10,86.17L283.87,85.11L132.53,88.98L130.71,89.23L129.96,89.79L129.25,89.80L128.71,89.25L128.72,88.55L129.16,87.92L130.05,87.93L130.56,88.46L162.50,87.78L282.75,84.60L283.87,84.43L284.25,83.27L285.31,82.01L286.34,81.50L288.00,81.50zM129.47,99.10L129.72,98.75L130.29,98.75L130.21,99.83L129.51,99.82z"/></g><g id="hotspot.4" ident="" onmouseover="ShowHotSpot(evt,'4')" onmouseout="HideHotSpot(evt,'4')" onmousemove="ShowToolTip(evt,'4',&quot;Object 1098&quot;)" opacity="0"><path style="fill:#00ff00;fill-rule:evenodd" d="M113.41,178.15L113.41,182.28L183.59,182.28L183.59,178.15zM120.00,73.22L119.73,73.85L118.60,73.87L118.60,73.00L119.78,72.99zM124.93,75.82L124.82,76.62L123.57,76.61L123.58,75.94L124.02,75.55L124.64,75.54zM289.82,92.82L290.58,94.40L290.31,96.03L288.80,97.61L287.64,98.01L286.69,98.02L285.43,97.47L284.11,95.95L283.86,95.17L272.96,95.17L158.81,96.97L157.25,97.24L142.32,97.23L132.79,97.49L132.52,97.99L131.32,98.00L131.07,97.74L131.07,96.54L131.50,96.17L132.10,96.16L132.62,96.71L142.32,96.71L156.04,96.52L156.25,96.22L157.33,96.22L157.55,96.52L283.87,94.48L284.29,93.10L285.91,91.62L288.26,91.55zM146.83,103.39L146.72,104.19L145.66,104.28L145.75,103.22L146.54,103.11z"/></g><g id="hotspot.5" ident="" onmouseover="ShowHotSpot(evt,'5')" onmouseout="HideHotSpot(evt,'5')" onmousemove="ShowToolTip(evt,'5',&quot;ER300-220&quot;)" opacity="0"><path style="fill:#00ff00;fill-rule:evenodd" d="M113.41,182.28L113.41,186.41L183.59,186.41L183.59,182.28zM138.32,61.48L137.66,61.22L137.68,60.62L137.99,60.60zM125.44,62.93L125.38,63.85L125.09,63.84L124.62,63.20L124.02,62.97L124.53,62.67L125.16,62.65zM166.88,64.76L166.38,65.86L165.58,65.52L165.56,65.11L166.01,64.47zM136.00,68.60L135.95,69.52L135.66,69.51L134.82,68.59L135.07,68.35L135.72,68.32zM11.26,71.71L12.81,72.99L13.32,74.29L13.32,75.42L13.02,76.18L13.04,76.85L89.61,131.50L91.13,131.50L91.41,132.00L91.32,133.06L89.84,133.04L89.56,132.77L89.58,131.97L12.78,77.10L12.23,77.13L11.41,77.89L10.12,78.17L8.65,77.92L7.15,76.59L6.85,76.12L6.85,73.59L8.33,71.97L9.98,71.49zM102.24,72.20L101.55,72.42L101.84,71.95zM101.35,72.99L101.69,73.53L101.20,73.53L100.83,72.98L101.55,72.42zM118.61,73.82L119.71,73.83L119.97,73.52L120.23,73.50L120.28,74.64L119.65,75.10L118.43,74.82L118.41,73.53zM165.67,74.68L165.26,75.14L165.33,75.36L165.61,75.36L165.62,76.18L164.72,75.32L165.27,74.50zM123.59,76.57L124.64,76.73L125.15,76.09L125.07,77.66L123.32,77.66L123.34,76.33zM81.36,82.89L81.06,83.66L81.07,82.60L81.85,82.52zM130.06,89.49L129.50,89.49L129.44,89.21L129.78,89.21zM156.56,97.28L157.25,97.23L157.63,96.72L157.54,97.49L156.05,97.48L155.71,96.94L156.06,96.47zM129.63,98.69L129.73,98.51L130.29,98.50zM129.11,98.99L129.63,98.69L129.48,99.94L128.96,99.57zM145.68,104.26L146.70,104.17L147.06,103.67L147.04,104.52L146.45,104.73L145.21,104.44L145.25,103.72L145.49,103.68zM86.52,107.76L85.69,108.13L85.74,108.90L85.48,108.86L85.45,107.88L85.89,107.50L86.27,107.51z"/></g><g id="hotspot.6" ident="" onmouseover="ShowHotSpot(evt,'6')" onmouseout="HideHotSpot(evt,'6')" onmousemove="ShowToolTip(evt,'6',&quot;ER300-220&quot;)" opacity="0"><path style="fill:#00ff00;fill-rule:evenodd" d="M113.41,186.41L113.41,190.53L183.59,190.53L183.59,186.41zM150.41,6.77L151.44,7.80L151.95,9.11L151.95,9.96L151.68,10.73L150.55,12.18L149.55,12.73L147.54,12.72L147.06,12.44L102.43,82.10L102.50,83.40L101.89,84.12L100.93,84.09L100.66,83.83L100.66,82.62L101.08,82.27L101.94,82.10L146.54,12.30L145.51,10.89L145.48,8.40L146.69,6.77L147.72,6.26L149.38,6.26z"/></g><g id="hotspot.7" ident="" onmouseover="ShowHotSpot(evt,'7')" onmouseout="HideHotSpot(evt,'7')" onmousemove="ShowToolTip(evt,'7',&quot;ER300-220&quot;)" opacity="0"><path style="fill:#00ff00;fill-rule:evenodd" d="M113.41,190.53L113.41,194.66L183.59,194.66L183.59,190.53zM138.71,60.88L139.28,60.84L139.05,61.75L138.81,61.71zM165.56,65.13L165.25,65.13L165.33,64.58L165.83,64.46zM102.48,72.70L102.15,73.03L102.18,73.53L101.70,73.54L101.57,72.72L101.85,72.44L102.25,72.46zM164.78,75.17L164.46,75.08L164.78,74.54L165.05,74.50zM119.76,75.11L119.66,75.58L118.93,75.63L118.58,75.37L118.59,75.07zM123.50,77.89L124.90,77.89L124.84,78.14L123.55,78.14zM103.01,82.77L103.24,84.09L103.75,84.34L165.88,137.69L166.25,137.69L167.56,136.90L169.21,136.91L169.98,137.17L170.77,137.92L171.79,139.47L171.79,140.87L171.44,141.55L170.49,142.66L169.39,143.36L167.64,143.37L166.61,142.85L165.32,141.31L165.32,139.04L165.62,138.54L165.63,137.93L102.99,84.33L101.42,84.10L101.44,82.63L102.24,82.29z"/></g><g id="hotspot.8" ident="" onmouseover="ShowHotSpot(evt,'8')" onmouseout="HideHotSpot(evt,'8')" onmousemove="ShowToolTip(evt,'8',&quot;Object 1037&quot;)" opacity="0"><path style="fill:#00ff00;fill-rule:evenodd" d="M188.59,161.65L188.59,165.77L258.77,165.77L258.77,161.65zM11.51,61.93L12.30,62.68L13.33,64.23L13.32,65.37L12.97,66.63L67.93,102.68L69.23,102.60L69.74,102.90L69.76,104.03L69.39,104.45L68.46,104.45L68.19,104.19L67.92,103.17L12.79,67.04L12.22,67.07L12.02,67.41L10.92,68.12L9.17,68.13L8.14,67.61L7.12,66.58L6.86,66.06L6.86,63.80L7.92,62.29L9.09,61.66L10.74,61.67z"/></g><g id="hotspot.9" ident="" onmouseover="ShowHotSpot(evt,'9')" onmouseout="HideHotSpot(evt,'9')" onmousemove="ShowToolTip(evt,'9',&quot;Object 1084&quot;)" opacity="0"><path style="fill:#00ff00;fill-rule:evenodd" d="M188.59,165.77L188.59,169.90L258.77,169.90L258.77,165.77zM94.99,61.16L96.56,62.42L98.11,64.48L99.13,66.55L99.37,67.86L99.38,70.26L99.12,71.03L98.50,71.70L93.64,74.57L91.63,74.57L90.09,73.79L88.31,72.21L86.22,68.13L86.22,64.58L87.02,63.31L91.80,60.62L93.98,60.63zM104.79,108.56L106.08,109.33L107.87,111.14L109.69,114.74L109.69,117.68L108.89,118.73L108.81,119.19L135.73,137.95L136.37,137.95L137.67,136.89L139.58,136.90L140.89,137.65L141.90,139.21L141.90,141.13L140.83,142.63L139.50,143.37L137.75,143.37L136.75,142.82L135.98,142.04L135.43,141.05L135.43,139.29L135.70,138.42L108.39,119.36L108.06,119.36L104.18,121.74L103.51,121.72L102.19,121.46L100.16,120.14L99.10,118.89L97.49,111.88L99.37,110.45L102.38,108.57L103.74,108.29z"/></g><g id="hotspot.10" ident="" onmouseover="ShowHotSpot(evt,'10')" onmouseout="HideHotSpot(evt,'10')" onmousemove="ShowToolTip(evt,'10',&quot;Object 1085&quot;)" opacity="0"><path style="fill:#00ff00;fill-rule:evenodd" d="M188.59,169.90L188.59,174.03L258.77,174.03L258.77,169.90zM140.83,7.07L141.90,8.58L141.90,10.49L141.27,11.66L139.76,12.73L137.75,12.73L136.75,12.53L101.60,59.85L102.99,61.41L103.76,63.49L103.50,64.59L102.66,65.29L101.16,65.26L100.32,65.56L99.63,65.56L98.62,65.00L98.07,64.00L98.09,62.27L99.04,61.16L99.80,60.12L101.35,59.61L136.49,12.04L135.72,11.15L135.43,10.41L135.43,8.66L135.98,7.66L136.75,6.89L137.75,6.34L139.32,6.27z"/></g><g id="hotspot.11" ident="" onmouseover="ShowHotSpot(evt,'11')" onmouseout="HideHotSpot(evt,'11')" onmousemove="ShowToolTip(evt,'11',&quot;905001&quot;)" opacity="0"><path style="fill:#00ff00;fill-rule:evenodd" d="M38.23,165.77L38.23,169.90L108.41,169.90L108.41,165.77zM170.25,6.77L171.00,7.56L171.79,8.83L171.79,10.23L171.52,10.74L170.39,12.18L169.39,12.73L167.39,12.73L166.88,12.42L166.28,12.42L151.60,29.72L150.38,31.11L150.38,31.50L151.97,32.78L154.03,35.10L156.09,38.19L157.35,40.80L158.11,43.13L158.64,45.44L158.63,49.90L158.38,51.19L157.59,52.98L157.62,55.33L150.06,62.73L145.26,61.43L141.36,61.42L128.20,57.58L126.19,55.21L123.60,51.85L123.00,51.85L121.73,52.67L120.51,52.65L119.71,51.64L119.73,50.42L122.81,48.61L122.56,45.18L121.27,35.90L121.28,33.93L122.83,32.13L123.06,30.56L126.96,25.96L127.63,25.57L128.48,25.59L130.54,26.12L132.29,26.12L132.88,25.87L143.68,28.70L147.82,29.98L149.62,31.04L150.03,31.01L166.11,11.92L165.32,10.66L165.32,8.40L166.76,6.74L167.82,6.27L169.22,6.26zM140.37,46.44L141.12,48.01L141.11,49.64L137.69,51.64L136.72,51.65L135.21,50.31L134.66,48.79L134.65,47.84L135.14,46.95L135.42,46.96L135.96,48.01L137.17,48.01L137.54,47.58L137.50,46.31L138.82,45.17zM137.01,46.30L136.92,45.97L137.22,45.92z"/></g><g id="hotspot.12" ident="" onmouseover="ShowHotSpot(evt,'12')" onmouseout="HideHotSpot(evt,'12')" onmousemove="ShowToolTip(evt,'12',&quot;Object 1090&quot;)" opacity="0"><path style="fill:#00ff00;fill-rule:evenodd" d="M188.59,174.03L188.59,178.15L258.77,178.15L258.77,174.03zM112.26,107.53L113.03,108.31L113.81,109.85L113.82,111.50L113.27,112.02L113.19,112.50L155.27,137.97L156.22,137.94L157.01,137.17L157.77,136.91L159.42,136.90L160.73,137.65L161.74,139.21L161.74,141.13L160.66,142.63L159.34,143.37L157.59,143.36L156.60,142.81L155.54,141.55L155.28,141.04L155.28,139.29L155.56,138.67L112.26,112.40L109.66,112.45L109.18,112.15L108.36,110.63L108.36,109.93L109.17,108.91L109.70,107.64L110.63,107.00z"/></g><g id="hotspot.13" ident="" onmouseover="ShowHotSpot(evt,'13')" onmouseout="HideHotSpot(evt,'13')" onmousemove="ShowToolTip(evt,'13',&quot;Object 1089&quot;)" opacity="0"><path style="fill:#00ff00;fill-rule:evenodd" d="M188.59,178.15L188.59,182.28L258.77,182.28L258.77,178.15zM130.56,6.77L131.60,7.80L132.11,9.38L131.85,10.74L131.22,11.66L129.71,12.73L127.71,12.73L127.19,12.42L126.62,12.45L100.82,44.65L83.38,66.16L83.30,66.63L85.23,67.82L87.03,69.89L88.54,73.02L98.86,117.84L99.87,122.97L99.64,124.38L99.12,125.15L94.93,127.91L92.66,127.91L91.15,127.10L90.36,126.34L88.04,113.46L86.83,106.16L87.10,105.63L87.03,105.47L86.83,106.16L86.68,106.08L86.78,104.49L86.50,104.50L86.51,103.40L86.17,102.87L86.24,102.40L85.20,97.49L83.14,85.63L82.97,84.00L83.11,84.12L91.63,119.66L92.41,121.45L93.99,123.49L95.53,124.63L95.24,122.49L84.17,74.81L82.40,71.69L80.82,70.14L80.23,70.15L80.06,72.07L79.53,71.20L79.29,71.25L79.04,72.85L78.67,73.27L77.73,73.27L77.47,73.01L77.47,71.80L77.89,71.45L79.09,71.07L79.28,70.67L79.05,70.43L78.75,69.41L77.95,68.63L78.11,68.09L79.71,67.08L82.80,66.30L123.49,15.79L126.44,11.92L125.64,10.93L125.63,8.14L126.85,6.77L127.88,6.26L129.53,6.26zM82.97,84.00L82.81,83.89L82.88,83.03zM87.10,105.63L86.83,106.16L87.03,105.47z"/></g><g id="hotspot.14" ident="" onmouseover="ShowHotSpot(evt,'14')" onmouseout="HideHotSpot(evt,'14')" onmousemove="ShowToolTip(evt,'14',&quot;AR112-037&quot;)" opacity="0"><path style="fill:#00ff00;fill-rule:evenodd" d="M38.23,169.90L38.23,174.03L108.41,174.03L108.41,169.90zM60.47,64.76L63.04,65.80L65.62,67.60L67.96,69.89L70.28,72.72L71.83,75.30L73.35,78.42L74.63,82.55L76.42,92.09L76.71,92.58L145.53,137.94L146.16,137.95L147.21,137.17L147.72,136.90L149.37,136.91L150.13,137.17L151.20,138.17L151.95,139.75L151.95,140.60L151.61,141.56L150.65,142.66L149.55,143.36L147.80,143.37L146.55,142.81L145.48,141.30L145.53,138.44L76.96,93.34L76.96,94.91L85.22,140.53L84.87,142.85L83.81,144.36L82.28,144.91L81.34,144.90L80.03,144.65L76.71,142.56L74.89,140.52L72.84,137.42L71.54,134.34L54.01,78.95L52.99,78.42L53.01,77.23L53.26,76.97L52.99,74.29L52.99,69.74L53.24,68.44L54.30,66.41L56.01,65.02L57.54,64.50L59.17,64.51zM62.78,71.72L64.36,72.72L66.17,74.26L68.47,77.65L68.40,78.14L68.98,78.92L69.74,81.51L69.75,84.96L69.49,85.46L68.35,86.94L67.97,86.92L59.45,81.24L58.39,78.95L57.88,76.88L57.88,74.11L58.43,72.60L59.85,71.45L62.02,71.46zM67.22,86.93L67.18,87.27L65.09,86.94L62.29,85.10L60.71,83.29L60.63,82.79L60.95,82.76zM69.73,90.28L70.80,90.76L72.83,99.03L72.85,100.16L72.22,101.11L70.75,100.85L69.76,100.04L68.96,98.79L68.36,97.21L67.39,98.61L67.41,99.01L71.29,102.38L73.89,104.93L74.64,106.50L74.65,107.90L70.91,110.35L72.82,118.12L73.36,118.86L75.40,119.67L76.38,119.65L76.46,119.15L74.92,113.18L74.66,112.93L73.60,112.69L73.03,110.58L75.91,111.41L77.98,119.91L78.00,121.55L77.65,121.96L75.92,121.97L74.14,121.43L72.34,119.88L71.53,118.11L69.11,108.56L71.28,107.10L72.85,106.11L71.29,104.44L67.17,100.83L66.38,97.75L66.41,96.04L68.11,93.58L68.46,93.58L68.73,93.85L69.72,97.50L70.26,98.52L71.02,98.63L71.03,97.23L70.01,93.09L69.73,92.61L65.35,91.32L64.55,90.82L64.23,88.98L65.10,88.98zM62.77,89.33L62.70,89.01L63.29,88.94zM63.76,92.06L63.02,92.14L62.93,91.85L63.82,91.81zM64.17,93.28L63.47,93.08L64.08,93.10zM64.45,93.54L63.52,93.96L63.46,93.68L64.17,93.28zM64.85,94.89L64.52,94.98L64.61,94.65zM65.63,98.33L65.03,98.38L65.26,97.96L65.65,98.00zM65.86,99.62L65.53,99.53L65.91,99.32zM65.34,101.45L65.31,100.55L65.58,100.51zM65.90,103.50L65.81,103.17L66.10,103.12zM66.41,104.27L66.32,103.94L66.62,103.89zM67.26,106.14L66.56,105.97L67.14,105.97zM67.80,106.41L67.27,106.69L67.26,106.14zM67.13,107.14L66.81,107.11L66.79,106.80L67.27,106.69zM68.20,108.55L67.87,108.63L67.96,108.30zM67.61,109.81L68.20,109.88L68.26,110.16L67.92,110.16zM68.80,111.05L68.39,111.48L68.10,111.42L68.39,110.85L68.69,110.83zM68.99,111.75L68.80,111.05L68.98,111.14zM69.23,112.49L68.62,112.44L69.29,112.21zM68.80,113.38L68.42,113.55L68.36,113.21zM69.83,114.90L69.30,115.19L69.43,114.71zM68.88,115.26L69.30,115.19L69.23,115.61L68.96,115.53zM70.24,116.40L69.63,116.26L70.05,116.03zM70.05,117.13L70.01,117.40L69.39,117.40L69.46,117.08z"/></g><g id="hotspot.15" ident="" onmouseover="ShowHotSpot(evt,'15')" onmouseout="HideHotSpot(evt,'15')" onmousemove="ShowToolTip(evt,'15',&quot;AR112-037&quot;)" opacity="0"><path style="fill:#00ff00;fill-rule:evenodd" d="M38.23,174.03L38.23,178.15L108.41,178.15L108.41,174.03zM70.00,61.67L73.35,63.99L74.92,65.51L77.47,68.63L80.05,73.26L81.60,77.38L91.92,136.15L91.65,138.03L90.90,139.60L85.23,143.48L84.60,143.71L84.65,143.18L84.96,142.68L85.22,140.53L74.63,82.55L73.35,78.42L71.83,75.30L70.28,72.72L67.96,69.89L65.62,67.60L63.04,65.80L60.47,64.76L59.17,64.51L56.77,64.52L63.47,60.89L64.51,60.64L67.16,60.64zM12.50,92.63L13.32,94.13L13.22,96.27L68.18,127.14L69.74,127.09L70.55,127.61L70.54,128.50L70.17,128.92L68.97,128.92L68.21,127.62L13.06,96.69L12.70,96.68L11.92,97.46L10.39,98.02L9.44,98.02L8.18,97.47L6.85,95.96L6.85,93.43L8.33,91.81L8.83,91.55L11.01,91.55zM82.16,82.78L82.14,83.40L81.75,83.84L81.08,83.86L81.07,82.61L81.87,82.49zM86.52,107.76L86.41,108.84L85.45,108.84L85.45,107.88L85.89,107.50L86.25,107.48zM90.92,132.00L90.90,132.61L90.51,133.06L89.84,133.07L89.83,131.82L90.63,131.71z"/></g><g id="hotspot.16" ident="" onmouseover="ShowHotSpot(evt,'16')" onmouseout="HideHotSpot(evt,'16')" onmousemove="ShowToolTip(evt,'16',&quot;AR112-037&quot;)" opacity="0"><path style="fill:#00ff00;fill-rule:evenodd" d="M38.23,178.15L38.23,182.28L108.41,182.28L108.41,178.15zM68.21,60.37L69.48,60.90L72.83,62.96L74.66,64.74L76.98,67.31L79.05,70.40L81.07,74.56L82.36,78.68L82.16,79.03L81.83,78.73L81.07,75.85L79.79,72.75L77.47,68.63L74.92,65.51L73.35,63.99L70.00,61.67L67.16,60.64L64.51,60.64L63.47,60.89L62.43,61.44L61.90,61.41L62.96,60.64L64.50,60.12L66.90,60.13zM86.52,107.24L86.75,108.56L94.47,114.24L125.67,137.68L126.58,137.67L127.88,136.90L129.53,136.90L130.56,137.42L131.59,138.45L132.11,140.01L131.78,141.57L130.81,142.66L129.71,143.36L127.70,143.36L126.71,142.81L125.63,141.57L125.69,138.20L86.48,108.80L85.45,108.86L84.95,108.56L84.93,107.09L86.27,106.99zM92.17,134.80L92.16,138.03L91.65,139.32L90.26,140.55L89.73,140.52L91.13,139.32L91.65,138.03L91.92,136.15L91.92,134.55z"/></g><g id="hotspot.17" ident="" onmouseover="ShowHotSpot(evt,'17')" onmouseout="HideHotSpot(evt,'17')" onmousemove="ShowToolTip(evt,'17',&quot;Object 1081&quot;)" opacity="0"><path style="fill:#00ff00;fill-rule:evenodd" d="M38.23,182.28L38.23,186.41L108.41,186.41L108.41,182.28zM178.52,24.27L179.00,25.33L179.01,26.99L178.71,27.46L164.48,35.92L165.33,36.17L282.32,53.94L284.04,53.94L285.17,52.49L286.10,51.88L287.45,51.61L288.50,51.88L290.31,53.68L290.58,55.30L290.05,56.61L288.44,58.08L285.91,58.08L284.40,56.75L284.10,56.28L283.88,54.70L165.33,36.68L163.18,36.66L157.86,39.85L157.02,40.12L156.09,38.19L154.77,36.12L154.68,35.67L176.06,23.27L177.47,23.26zM140.37,46.44L141.12,48.01L141.11,49.64L137.69,51.64L136.72,51.65L135.21,50.31L134.66,48.79L134.65,47.83L135.12,47.00L138.20,45.15L138.80,45.15z"/></g><g id="hotspot.18" ident="" onmouseover="ShowHotSpot(evt,'18')" onmouseout="HideHotSpot(evt,'18')" onmousemove="ShowToolTip(evt,'18',&quot;ERJBC046&quot;)" opacity="0"><path style="fill:#00ff00;fill-rule:evenodd" d="M38.23,186.41L38.23,190.53L108.41,190.53L108.41,186.41zM98.38,72.72L98.78,76.69L123.88,91.05L124.25,91.05L127.12,89.21L127.72,89.21L128.23,89.53L128.67,89.52L129.29,89.24L129.53,89.47L130.29,89.60L130.83,89.23L130.75,99.87L131.04,100.08L131.03,101.17L130.75,101.37L130.78,101.58L133.15,103.39L175.67,137.68L176.31,137.69L176.85,137.16L177.62,136.91L179.26,136.90L180.57,137.65L181.58,138.96L181.58,141.38L180.54,142.66L179.44,143.36L177.43,143.36L176.44,142.81L175.37,141.56L175.11,140.79L175.11,139.55L175.66,138.16L130.55,101.84L129.95,101.84L124.82,105.23L123.07,105.23L120.50,103.93L94.20,88.49L93.88,88.28L93.98,87.28L94.23,87.02L94.21,75.55L93.99,75.32L93.87,74.58L97.22,72.47L98.11,72.45zM131.09,88.29L130.46,88.76L129.93,88.73L130.76,88.18zM128.65,99.53L129.70,98.48L130.29,98.49L130.22,99.82L128.96,99.82zM128.16,100.31L127.60,100.31L127.88,100.03L128.23,100.03z"/></g><g id="hotspot.19" ident="" onmouseover="ShowHotSpot(evt,'19')" onmouseout="HideHotSpot(evt,'19')" onmousemove="ShowToolTip(evt,'19',&quot;ER300-220&quot;)" opacity="0"><path style="fill:#00ff00;fill-rule:evenodd" d="M38.23,190.53L38.23,194.66L108.41,194.66L108.41,190.53zM160.66,7.08L161.74,8.58L161.74,10.49L161.11,11.66L159.60,12.73L157.59,12.73L156.59,12.53L112.26,70.52L112.02,78.27L107.55,81.01L106.32,81.01L105.05,80.22L104.78,80.29L104.81,81.60L104.44,82.03L103.24,82.02L102.87,80.99L103.46,80.28L104.54,79.98L98.78,76.69L98.37,72.72L97.75,72.24L99.11,71.03L99.53,70.42L110.63,63.96L110.97,63.97L112.27,65.00L112.52,69.51L156.33,12.04L155.28,10.41L155.28,8.66L155.98,7.56L157.09,6.61L157.76,6.26L159.16,6.27zM141.43,80.69L141.65,81.32L140.60,81.85L140.34,82.88L140.08,88.29L140.00,93.96L140.90,94.39L141.13,94.75L131.87,100.96L131.25,101.21L131.05,100.08L130.75,99.87L130.73,98.27L131.32,97.73L130.82,97.82L130.81,93.96L131.04,88.17L130.76,88.18L129.00,89.33L128.23,89.52L127.72,89.21L126.93,89.32L126.85,88.75L139.99,80.47L141.13,80.46zM128.96,99.78L128.32,99.98L128.68,99.50L129.00,99.52zM128.12,100.34L127.60,100.31L127.84,100.06L128.32,99.98zM129.74,102.36L129.09,102.55L129.46,102.08L129.77,102.09zM128.89,102.91L128.38,102.89L128.61,102.63L129.09,102.55zM110.64,67.59L110.08,67.59L110.36,67.31L110.71,67.31zM103.69,71.71L103.13,71.71L103.41,71.43L103.75,71.43zM102.42,72.22L102.40,73.53L101.19,73.50L100.74,73.17L101.83,71.98zM100.56,73.53L100.03,73.52L100.28,73.25L100.74,73.17z"/></g><g id="hotspot.20" ident="" onmouseover="ShowHotSpot(evt,'20')" onmouseout="HideHotSpot(evt,'20')" onmousemove="ShowToolTip(evt,'20',&quot;Object 1082&quot;)" opacity="0"><path style="fill:#00ff00;fill-rule:evenodd" d="M113.41,161.65L113.41,165.77L183.59,165.77L183.59,161.65zM288.77,71.97L290.09,73.22L290.58,74.57L290.31,76.19L288.94,77.66L287.38,78.18L285.91,77.92L284.40,76.59L283.86,75.33L279.66,75.33L154.68,79.70L154.51,82.36L150.13,85.22L150.13,81.85L150.38,77.46L150.77,76.31L154.71,73.74L155.02,73.75L154.94,79.03L283.87,74.64L284.29,73.26L285.91,71.78L287.24,71.49z"/></g><g id="ToolTip" visibility="hidden" opacity="0" transform="translate(0,0)"><rect id="ToolTipShadow" opacity="0.20" fill="black" stroke="none" x="0" y="0" width="30" height="8"/><rect id="ToolTipBG" fill="#ffffe1" stroke="black" x="0" y="0" width="30" height="8"/><text xml:space="preserve" id="ToolTipText" fill="black" x="0" y="0" width="30" height="8">tooltip</text></g></g></svg>
